<svg id="Layer_1" data-name="Layer 1" xmlns="http://www.w3.org/2000/svg" viewBox="0 0 128 128"><title>Artboard 1</title><path d="M39.75,48.742H85.763a2.151,2.151,0,1,0,0-4.3H39.75a2.151,2.151,0,0,0,0,4.3Z" style="fill:#000001"/><path d="M39.75,41.124H62.757a2.151,2.151,0,0,0,0-4.3H39.75a2.151,2.151,0,0,0,0,4.3Z" style="fill:#000001"/><path d="M39.75,63.978H85.763a2.151,2.151,0,1,0,0-4.3H39.75a2.151,2.151,0,1,0,0,4.3Z" style="fill:#000001"/><path d="M39.75,71.6H62.757a2.151,2.151,0,0,0,0-4.3H39.75a2.151,2.151,0,0,0,0,4.3Z" style="fill:#000001"/><path d="M39.75,56.359H62.757a2.151,2.151,0,0,0,0-4.3H39.75a2.151,2.151,0,0,0,0,4.3Z" style="fill:#000001"/><path d="M28.725,111.4a6.832,6.832,0,0,0,4.84,2.011H94.435a6.867,6.867,0,0,0,6.851-6.851V35.4a2.134,2.134,0,0,0-.233-.973l0,0-.01-.021,0,0-.011-.021v0l-.011-.021,0,0-.025-.043,0,0-.012-.02,0,0-.04-.064,0,0-.013-.019,0,0-.013-.018,0,0-.013-.018,0,0-.012-.017,0,0-.012-.016,0-.005-.012-.016,0-.006-.017-.021-.011-.014-.006-.007-.011-.013-.006-.008-.011-.013L100.768,34l-.01-.012-.008-.009-.009-.011-.009-.009-.009-.01-.01-.01-.008-.009-.011-.011-.007-.008-.012-.012-.019-.02-.024-.024L82.025,15.247c-.046-.047-.095-.093-.146-.137l-.008-.007c-.024-.021-.05-.042-.076-.062l-.006,0-.021-.016-.016-.012-.026-.019-.018-.013,0,0-.022-.015-.019-.013,0,0c-.028-.019-.058-.037-.087-.054l0,0-.044-.025,0,0L81.5,14.85l-.021-.011h0a2.141,2.141,0,0,0-1-.245H33.565a6.832,6.832,0,0,0-4.84,2.011l0,0,0,0a6.824,6.824,0,0,0-2.011,4.832v85.113a6.82,6.82,0,0,0,1.884,4.7C28.639,111.305,28.681,111.352,28.725,111.4ZM82.631,21.935,93.943,33.247H85.655a3.01,3.01,0,0,1-2.05-.8c-.027-.03-.055-.06-.084-.089a3.013,3.013,0,0,1-.89-2.134Zm-51.615-.491a2.551,2.551,0,0,1,.746-1.8l0,0a2.541,2.541,0,0,1,1.8-.75H78.329v11.33A7.3,7.3,0,0,0,80.48,35.4c.045.045.091.087.138.127a7.3,7.3,0,0,0,5.036,2.024h11.33v69.008a2.562,2.562,0,0,1-2.55,2.55H33.565a2.542,2.542,0,0,1-1.8-.75c-.028-.028-.055-.054-.084-.08a2.55,2.55,0,0,1-.667-1.72Z" style="fill:#000001"/></svg>