<svg id="Layer_1" data-name="Layer 1" xmlns="http://www.w3.org/2000/svg" viewBox="0 0 128 128"><title>OPEN BOOK</title><path d="M117,25.291h-8.729c-2.665-.832-23.2-6.789-44.271-.082-21.068-6.707-41.607-.751-44.271.082H11a1.75,1.75,0,0,0-1.75,1.75v77.132a1.75,1.75,0,0,0,1.75,1.75H117a1.75,1.75,0,0,0,1.75-1.75V27.041A1.75,1.75,0,0,0,117,25.291Zm-10.75,3.061V95.979a97.913,97.913,0,0,0-40.5-.032V28.329C83.658,22.88,101.526,27.051,106.25,28.352Zm-44-.029V95.947a97.936,97.936,0,0,0-40.5.032V28.352C26.475,27.051,44.343,22.874,62.25,28.323Zm-49.5.468h5.5V98.177A1.75,1.75,0,0,0,20,99.927a1.73,1.73,0,0,0,.414-.05,95.342,95.342,0,0,1,41.836-.331v2.877H12.75Zm102.5,73.632H65.75V99.547a95.355,95.355,0,0,1,41.836.331,1.75,1.75,0,0,0,2.164-1.7V28.791h5.5Z"/><path d="M28.546,44.053c.135-.044,13.606-4.373,26.907,0a1.75,1.75,0,0,0,1.093-3.325c-14.38-4.728-28.5-.2-29.093,0a1.75,1.75,0,1,0,1.093,3.325Z"/><path d="M28.546,56.794c.135-.044,13.606-4.373,26.907,0a1.75,1.75,0,1,0,1.093-3.325c-14.38-4.728-28.5-.2-29.093,0a1.75,1.75,0,1,0,1.093,3.325Z"/><path d="M28.546,69.535c.135-.044,13.606-4.373,26.907,0a1.75,1.75,0,1,0,1.093-3.325c-14.38-4.728-28.5-.2-29.093,0a1.75,1.75,0,1,0,1.093,3.325Z"/><path d="M28.546,82.275c.135-.044,13.606-4.373,26.907,0a1.75,1.75,0,0,0,1.093-3.325c-14.38-4.728-28.5-.2-29.093,0a1.75,1.75,0,0,0,1.093,3.325Z"/><path d="M72,44.141a1.754,1.754,0,0,0,.547-.088c13.261-4.359,26.773-.043,26.908,0a1.75,1.75,0,0,0,1.092-3.326c-.595-.195-14.71-4.727-29.094,0A1.751,1.751,0,0,0,72,44.141Z"/><path d="M72,56.882a1.754,1.754,0,0,0,.547-.088c13.261-4.359,26.773-.043,26.908,0a1.75,1.75,0,0,0,1.092-3.326c-.595-.2-14.71-4.727-29.094,0A1.751,1.751,0,0,0,72,56.882Z"/><path d="M72,69.623a1.754,1.754,0,0,0,.547-.088c13.261-4.36,26.773-.044,26.908,0a1.75,1.75,0,0,0,1.092-3.326c-.595-.194-14.71-4.727-29.094,0A1.751,1.751,0,0,0,72,69.623Z"/><path d="M100.547,78.95c-.595-.2-14.71-4.727-29.094,0a1.75,1.75,0,1,0,1.094,3.325c13.261-4.36,26.773-.044,26.908,0a1.75,1.75,0,0,0,1.092-3.326Z"/></svg>