<svg id="Layer_1" data-name="Layer 1" xmlns="http://www.w3.org/2000/svg" viewBox="0 0 128 128"><title>REPORT</title><path d="M37.333,53.8H90.667a1.75,1.75,0,0,0,0-3.5H87.161V24.05a1.75,1.75,0,0,0-1.75-1.75H78.6V16.249a1.751,1.751,0,0,0-1.75-1.75H68.279a1.75,1.75,0,0,0-1.75,1.75V37.334H61.464V24.05a1.75,1.75,0,0,0-1.75-1.75H51.147a1.751,1.751,0,0,0-1.75,1.75v6.59H42.582a1.75,1.75,0,0,0-1.75,1.75V50.3h-3.5a1.75,1.75,0,0,0,0,3.5Zm46.328-28V50.3H78.6V25.8ZM70.029,18H75.1V50.3H70.029V18Zm-3.5,22.835V50.3H61.464V40.834ZM52.9,25.8h5.067V50.3H52.9V25.8Zm-8.565,8.34H49.4V50.3H44.332Z"/><path d="M58.71,86.089H26.481a1.75,1.75,0,1,0,0,3.5H58.71a1.75,1.75,0,1,0,0-3.5Z"/><path d="M26.479,99.063H58.706a1.75,1.75,0,0,0,0-3.5H26.479a1.75,1.75,0,0,0,0,3.5Z"/><path d="M26.479,108.538H58.706a1.75,1.75,0,0,0,0-3.5H26.479a1.75,1.75,0,0,0,0,3.5Z"/><path d="M26.481,70.641H58.71a1.75,1.75,0,0,0,0-3.5H26.481a1.75,1.75,0,0,0,0,3.5Z"/><path d="M26.479,80.114H58.706a1.75,1.75,0,0,0,0-3.5H26.479a1.75,1.75,0,0,0,0,3.5Z"/><path d="M112.654,4.75H15.346A1.75,1.75,0,0,0,13.6,6.5v115a1.75,1.75,0,0,0,1.75,1.75h97.308a1.75,1.75,0,0,0,1.75-1.75V6.5A1.75,1.75,0,0,0,112.654,4.75Zm-1.75,115H17.1V8.25H110.9Z"/><path d="M85.734,70.288l-.022,0c-.015,0-.028,0-.043,0a17.553,17.553,0,1,0,12.414,30c.014-.013.03-.022.043-.036.032-.032.055-.068.084-.1a17.634,17.634,0,0,0,5.043-12.184c0-.043.013-.084.013-.128a1.671,1.671,0,0,0-.022-.213,17.405,17.405,0,0,0-1.92-7.812h0a17.54,17.54,0,0,0-15.59-9.525Zm6.4,30.05a14.054,14.054,0,1,1-8.176-26.445V87.839a1.736,1.736,0,0,0,.035.346,1.787,1.787,0,0,0,.066.219c.013.036.019.073.034.108a1.838,1.838,0,0,0,.126.236c.013.021.021.044.035.064a1.744,1.744,0,0,0,.218.266l9.856,9.857A14.136,14.136,0,0,1,92.138,100.338ZM96.8,96.456l-6.866-6.867h9.716a13.877,13.877,0,0,1-2.85,6.867Zm1.408-15.042h0a14.053,14.053,0,0,1,1.437,4.675H87.462V73.9a14.194,14.194,0,0,1,2.545.557A13.959,13.959,0,0,1,98.211,81.414Z"/></svg>