<svg id="Layer_1" data-name="Layer 1" xmlns="http://www.w3.org/2000/svg" viewBox="0 0 128 128"><title>FOLDER</title><path d="M121.5,43.915h-9.75v-12A1.75,1.75,0,0,0,110,30.16H53.8L41.9,14.29a1.748,1.748,0,0,0-1.4-.7H6.5a1.75,1.75,0,0,0-1.75,1.75V103.8a10.617,10.617,0,0,0,10.6,10.61H110c.017,0,.032,0,.048,0h2.612a10.607,10.607,0,0,0,10.59-10.6V45.665A1.75,1.75,0,0,0,121.5,43.915ZM8.25,103.8V17.09H39.625l11.9,15.87a1.748,1.748,0,0,0,1.4.7h55.33V43.915H24.2a1.75,1.75,0,0,0-1.75,1.75v58.14a7.108,7.108,0,0,1-7.1,7.1c-.011,0-.022,0-.033,0A7.112,7.112,0,0,1,8.25,103.8Zm111.5.005a7.1,7.1,0,0,1-7.09,7.1H23.214a10.556,10.556,0,0,0,2.736-7.1V47.415h93.8Z"/><path d="M31.2,87.875a1.75,1.75,0,0,0,1.75-1.75v-28a1.75,1.75,0,0,0-3.5,0v28A1.75,1.75,0,0,0,31.2,87.875Z"/></svg>