<svg id="Layer_1" data-name="Layer 1" xmlns="http://www.w3.org/2000/svg" viewBox="0 0 128 128"><title>GRAPH</title><path d="M22.5,112.808H35.945a1.751,1.751,0,0,0,1.75-1.75v-28.3a1.75,1.75,0,0,0-1.75-1.75H22.5a1.75,1.75,0,0,0-1.75,1.75v28.3A1.751,1.751,0,0,0,22.5,112.808Zm1.75-28.3H34.2v24.8H24.246Z"/><path d="M43.884,68.177a1.749,1.749,0,0,0-1.75,1.75v41.131a1.75,1.75,0,0,0,1.75,1.75H57.333a1.751,1.751,0,0,0,1.75-1.75V69.927a1.75,1.75,0,0,0-1.75-1.75Zm11.7,41.131H45.634V71.677h9.949Z"/><path d="M65.271,55.349a1.75,1.75,0,0,0-1.75,1.75v53.959a1.751,1.751,0,0,0,1.75,1.75h13.45a1.751,1.751,0,0,0,1.75-1.75V57.1a1.75,1.75,0,0,0-1.75-1.75Zm11.7,53.959h-9.95V58.849h9.95Z"/><path d="M84.909,44.271v66.787a1.75,1.75,0,0,0,1.75,1.75h13.449a1.75,1.75,0,0,0,1.75-1.75V44.271a1.749,1.749,0,0,0-1.75-1.75H86.659A1.749,1.749,0,0,0,84.909,44.271Zm3.5,1.75h9.949v63.287H88.409Z"/><path d="M121.5,29.692H108.048a1.75,1.75,0,0,0-1.75,1.75v79.616a1.75,1.75,0,0,0,1.75,1.75H121.5a1.75,1.75,0,0,0,1.75-1.75V31.442A1.75,1.75,0,0,0,121.5,29.692Zm-1.75,79.616H109.8V33.192h9.948Z"/><path d="M121.5,119.75H13.8V6.5a1.75,1.75,0,0,0-3.5,0V29.692H6.5a1.75,1.75,0,0,0,0,3.5h3.8v9.329H6.5a1.75,1.75,0,0,0,0,3.5h3.8v9.328H6.5a1.75,1.75,0,0,0,0,3.5h3.8v9.328H6.5a1.75,1.75,0,0,0,0,3.5h3.8v9.329H6.5a1.75,1.75,0,0,0,0,3.5h3.8v9.328H6.5a1.75,1.75,0,0,0,0,3.5h3.8V121.5a1.749,1.749,0,0,0,1.75,1.75H121.5a1.75,1.75,0,0,0,0-3.5Z"/><path d="M33.081,60.966a1.741,1.741,0,0,0,.9-.249L92.2,25.8l-1.133,4.528a1.75,1.75,0,1,0,3.395.85l2.157-8.624a1.671,1.671,0,0,0,.051-.345,1.282,1.282,0,0,0-.006-.139,1.7,1.7,0,0,0-.011-.2,1.543,1.543,0,0,0-.04-.166,1.689,1.689,0,0,0-.043-.166,1.823,1.823,0,0,0-.119-.253c-.011-.019-.016-.039-.027-.057s-.03-.037-.043-.058a1.8,1.8,0,0,0-.162-.217c-.04-.044-.086-.079-.129-.118a1.445,1.445,0,0,0-.124-.111,1.773,1.773,0,0,0-.186-.113c-.036-.02-.068-.045-.106-.063a1.822,1.822,0,0,0-.332-.119l-8.62-2.156a1.749,1.749,0,0,0-.85,3.394L90.4,22.8,32.179,57.715a1.75,1.75,0,0,0,.9,3.251Z"/></svg>