<svg id="Layer_1" data-name="Layer 1" xmlns="http://www.w3.org/2000/svg" viewBox="0 0 64 64"><title>Artboard 5</title><path d="M53.9,19.991a.985.985,0,0,0-.2-.293L40.189,6.186a.989.989,0,0,0-.293-.2,1.258,1.258,0,0,0-.352-.084c-.021,0-.041-.012-.062-.012H11.975a1.97,1.97,0,0,0-1.968,1.968V56.139a1.97,1.97,0,0,0,1.968,1.968h40.05a1.97,1.97,0,0,0,1.968-1.968V20.4c0-.022-.011-.041-.012-.063a.989.989,0,0,0-.051-.257A.967.967,0,0,0,53.9,19.991Zm-3.311-.579-10.1.025V9.307l.907.907ZM12.007,56.139,11.975,7.893H38.481V19.437A1.97,1.97,0,0,0,40.449,21.4H51.993v34.7Z"/><path d="M45.894,26.886H18.106a1,1,0,0,0,0,2H45.894a1,1,0,0,0,0-2Z"/><path d="M45.894,32.815H18.106a1,1,0,0,0,0,2H45.894a1,1,0,0,0,0-2Z"/><path d="M45.894,38.744H18.106a1,1,0,0,0,0,2H45.894a1,1,0,0,0,0-2Z"/><path d="M45.894,44.672H18.106a1,1,0,0,0,0,2H45.894a1,1,0,0,0,0-2Z"/><path d="M45.894,50.6H18.106a1,1,0,0,0,0,2H45.894a1,1,0,0,0,0-2Z"/></svg>