<svg id="Layer_1" data-name="Layer 1" xmlns="http://www.w3.org/2000/svg" viewBox="0 0 128 128"><title>WORLDWIDE</title><path d="M114.99,94.126a1.714,1.714,0,0,0,.315-.547,59.033,59.033,0,0,0,0-59.158,1.714,1.714,0,0,0-.315-.547A59.5,59.5,0,0,0,80.466,7.1,1.766,1.766,0,0,0,80,6.962a58.943,58.943,0,0,0-32,0,1.734,1.734,0,0,0-.461.131A59.491,59.491,0,0,0,13.01,33.874a1.714,1.714,0,0,0-.315.547,59.033,59.033,0,0,0,0,59.158,1.714,1.714,0,0,0,.315.547,59.5,59.5,0,0,0,34.5,26.772,1.763,1.763,0,0,0,.481.137,58.944,58.944,0,0,0,32.01,0,1.747,1.747,0,0,0,.505-.143A59.5,59.5,0,0,0,114.99,94.126Zm-49.24,25.58V94.75H89.663c-2.6,9.51-6.341,17.412-10.891,23A55.542,55.542,0,0,1,65.75,119.706Zm-16.522-1.958c-4.55-5.586-8.291-13.487-10.891-23H62.25v24.956A55.542,55.542,0,0,1,49.228,117.748Zm-40.934-52H30.945a121.674,121.674,0,0,0,2.921,25.5H15.39A55.363,55.363,0,0,1,8.294,65.75Zm7.1-29H33.866a121.69,121.69,0,0,0-2.921,25.5H8.294A55.363,55.363,0,0,1,15.39,36.75ZM62.25,8.294V33.25H38.337c2.6-9.51,6.341-17.412,10.891-23A55.542,55.542,0,0,1,62.25,8.294Zm16.522,1.958c4.55,5.586,8.291,13.487,10.891,23H65.75V8.294A55.542,55.542,0,0,1,78.772,10.252Zm40.934,52H97.055a121.674,121.674,0,0,0-2.921-25.5H112.61A55.363,55.363,0,0,1,119.706,62.25Zm-7.1,29H94.134a121.69,121.69,0,0,0,2.921-25.5h22.651A55.363,55.363,0,0,1,112.61,91.25Zm-46.86,0V65.75H93.556a117.715,117.715,0,0,1-3.015,25.5Zm27.806-29H65.75V36.75H90.541A117.7,117.7,0,0,1,93.556,62.25ZM62.25,36.75v25.5H34.444a117.715,117.715,0,0,1,3.015-25.5Zm-27.806,29H62.25v25.5H37.459A117.7,117.7,0,0,1,34.444,65.75Zm50.009,50.1a74.112,74.112,0,0,0,8.83-21.1h17.189A56.049,56.049,0,0,1,84.453,115.846Zm26.019-82.6H93.283a74.136,74.136,0,0,0-8.83-21.1A56.058,56.058,0,0,1,110.472,33.25Zm-66.925-21.1a74.131,74.131,0,0,0-8.83,21.1H17.528A56.051,56.051,0,0,1,43.547,12.153ZM17.528,94.75H34.717a74.145,74.145,0,0,0,8.83,21.1A56.049,56.049,0,0,1,17.528,94.75Z"/></svg>