<svg id="Layer_1" data-name="Layer 1" xmlns="http://www.w3.org/2000/svg" viewBox="0 0 128 128"><title>CODING</title><path d="M121.5,13.6H6.5a1.751,1.751,0,0,0-1.75,1.75v97.308A1.751,1.751,0,0,0,6.5,114.4h115a1.751,1.751,0,0,0,1.75-1.75V15.346A1.751,1.751,0,0,0,121.5,13.6ZM8.25,17.1h111.5V27.737H8.25Zm0,93.808V31.237h111.5V110.9Z"/><path d="M82.958,19.393a3.024,3.024,0,1,0,3.024,3.024A3.024,3.024,0,0,0,82.958,19.393Z"/><path d="M94.792,19.393a3.024,3.024,0,1,0,3.023,3.024A3.024,3.024,0,0,0,94.792,19.393Z"/><path d="M106.625,19.393a3.024,3.024,0,1,0,3.023,3.024A3.023,3.023,0,0,0,106.625,19.393Z"/><path d="M52.326,57.245a1.748,1.748,0,0,0-2.474,0L37.263,69.833a1.749,1.749,0,0,0,0,2.475L49.852,84.9a1.749,1.749,0,0,0,2.474-2.474L40.975,71.07,52.326,59.719A1.748,1.748,0,0,0,52.326,57.245Z"/><path d="M78.148,57.245a1.749,1.749,0,0,0-2.474,2.474L87.025,71.07,75.674,82.422A1.749,1.749,0,1,0,78.148,84.9L90.737,72.308a1.749,1.749,0,0,0,0-2.475Z"/><path d="M70.829,46.327a1.754,1.754,0,0,0-2.153,1.222L55.95,93.662a1.75,1.75,0,1,0,3.374.93L72.05,48.479A1.749,1.749,0,0,0,70.829,46.327Z"/></svg>