<svg id="Layer_1" data-name="Layer 1" xmlns="http://www.w3.org/2000/svg" viewBox="0 0 128 128"><title>STATS</title><path d="M121.5,13.6H6.5a1.751,1.751,0,0,0-1.75,1.75v97.308A1.751,1.751,0,0,0,6.5,114.4h115a1.75,1.75,0,0,0,1.75-1.75V15.346A1.75,1.75,0,0,0,121.5,13.6ZM8.25,17.1h111.5V27.737H8.25Zm0,93.808V31.237h111.5V110.9Z"/><path d="M82.958,19.393a3.024,3.024,0,1,0,3.024,3.024A3.024,3.024,0,0,0,82.958,19.393Z"/><path d="M94.792,19.393a3.024,3.024,0,1,0,3.023,3.024A3.024,3.024,0,0,0,94.792,19.393Z"/><path d="M106.625,19.393a3.024,3.024,0,1,0,3.023,3.024A3.023,3.023,0,0,0,106.625,19.393Z"/><path d="M72.453,87.223H68.948V60.97a1.75,1.75,0,0,0-1.75-1.75H60.382V53.168a1.751,1.751,0,0,0-1.75-1.75H50.066a1.751,1.751,0,0,0-1.75,1.75V74.254H43.25V60.97a1.751,1.751,0,0,0-1.75-1.75H32.934a1.751,1.751,0,0,0-1.75,1.75v6.59H24.368a1.75,1.75,0,0,0-1.75,1.75V87.223h-3.5a1.75,1.75,0,0,0,0,3.5H72.453a1.75,1.75,0,0,0,0-3.5ZM26.118,71.06h5.066V87.223H26.118Zm8.566-1.75V62.72H39.75v24.5H34.684Zm8.566,8.444h5.066v9.469H43.25ZM51.816,76V54.918h5.066V87.223H51.816Zm8.566,11.219V62.72h5.066v24.5Z"/><path d="M112.672,68.274H82.961a1.75,1.75,0,0,0,0,3.5h29.711a1.75,1.75,0,0,0,0-3.5Z"/><path d="M112.668,77.748H82.958a1.75,1.75,0,0,0,0,3.5h29.71a1.75,1.75,0,0,0,0-3.5Z"/><path d="M112.668,87.223H82.958a1.75,1.75,0,0,0,0,3.5h29.71a1.75,1.75,0,0,0,0-3.5Z"/><path d="M112.672,49.325H82.961a1.75,1.75,0,0,0,0,3.5h29.711a1.75,1.75,0,0,0,0-3.5Z"/><path d="M82.958,62.3h29.71a1.75,1.75,0,0,0,0-3.5H82.958a1.75,1.75,0,0,0,0,3.5Z"/></svg>