<svg id="Layer_2" data-name="Layer 2" xmlns="http://www.w3.org/2000/svg" viewBox="0 0 128 128"><title>CLOUD</title><path d="M81.285,19.766a1.75,1.75,0,0,0,0,3.5,19.476,19.476,0,0,1,19.454,19.453,1.75,1.75,0,1,0,3.5,0A22.98,22.98,0,0,0,81.285,19.766Z"/><path d="M114.073,36.255A33.409,33.409,0,0,0,60.437,16.607a22.853,22.853,0,0,0-37.4,17.645c0,.053,0,.105,0,.159h-.16a22.875,22.875,0,0,0,0,45.75H50.75V91.2l-9.036,9.036a8.089,8.089,0,1,0,2.474,2.475l9.549-9.549a1.75,1.75,0,0,0,.513-1.237V80.16h8v22.614a8.062,8.062,0,1,0,3.5,0V80.16h8V91.926a1.75,1.75,0,0,0,.513,1.237l9.549,9.549a8.088,8.088,0,1,0,2.474-2.475L77.25,91.2V80.16h27.875a22.862,22.862,0,0,0,8.948-43.905Zm-76.681,75.34a4.563,4.563,0,1,1,4.563-4.562A4.568,4.568,0,0,1,37.393,111.595Zm31.17-.955A4.562,4.562,0,1,1,64,106.077,4.568,4.568,0,0,1,68.562,110.64Zm26.607-3.607a4.563,4.563,0,1,1-4.562-4.562A4.568,4.568,0,0,1,95.17,107.032Zm9.955-30.372H22.875a19.375,19.375,0,0,1,0-38.75c.572,0,1.177.03,1.847.094a1.75,1.75,0,0,0,1.906-1.909c-.063-.657-.094-1.26-.094-1.843A19.354,19.354,0,0,1,59.205,20.187a1.752,1.752,0,0,0,2.356.044A29.908,29.908,0,0,1,110.8,37.8a1.751,1.751,0,0,0,1.112,1.354,19.363,19.363,0,0,1-6.784,37.5Z"/><path d="M106.875,85.553a8.063,8.063,0,1,0,8.062,8.063A8.072,8.072,0,0,0,106.875,85.553Zm0,12.625a4.563,4.563,0,1,1,4.562-4.562A4.568,4.568,0,0,1,106.875,98.178Z"/><path d="M21.125,85.553a8.063,8.063,0,1,0,8.062,8.063A8.072,8.072,0,0,0,21.125,85.553Zm0,12.625a4.563,4.563,0,1,1,4.562-4.562A4.568,4.568,0,0,1,21.125,98.178Z"/></svg>