<svg id="Layer_1" data-name="Layer 1" xmlns="http://www.w3.org/2000/svg" viewBox="0 0 128 128"><title>LAPTOP</title><path d="M123.184,96.3c-.01-.036-.021-.07-.033-.105a1.731,1.731,0,0,0-.181-.387.186.186,0,0,0-.01-.02l-.008-.014,0,0-12.2-18.487V24.19A1.751,1.751,0,0,0,109,22.44H19a1.751,1.751,0,0,0-1.75,1.75V77.282L5.05,95.769l0,0-.008.014a.186.186,0,0,0-.01.02,1.731,1.731,0,0,0-.181.387c-.012.035-.023.069-.033.105a1.726,1.726,0,0,0-.066.452v7.059a1.751,1.751,0,0,0,1.75,1.75h115a1.751,1.751,0,0,0,1.75-1.75V96.749A1.726,1.726,0,0,0,123.184,96.3ZM19.94,79.56h88.12L118.248,95H9.752Zm87.31-53.62V76.058H20.75V25.94Zm-99,76.118V98.5h111.5v3.559Z"/><path d="M37.333,70.652H90.667a1.75,1.75,0,0,0,0-3.5h-3.5V40.9a1.751,1.751,0,0,0-1.75-1.75H78.6V33.1a1.751,1.751,0,0,0-1.75-1.75H68.28a1.75,1.75,0,0,0-1.75,1.75V54.184H61.464V40.9a1.751,1.751,0,0,0-1.75-1.75H51.148A1.751,1.751,0,0,0,49.4,40.9v6.59H42.582a1.751,1.751,0,0,0-1.75,1.75V67.152h-3.5a1.75,1.75,0,0,0,0,3.5Zm46.329-28v24.5H78.6v-24.5Zm-13.632-7.8H75.1v32.3H70.03v-32.3Zm-3.5,22.836v9.468H61.464V57.684ZM52.9,42.649h5.066v24.5H52.9v-24.5Zm-8.566,8.34H49.4V67.152H44.332Z"/></svg>