<svg id="Layer_1" data-name="Layer 1" xmlns="http://www.w3.org/2000/svg" viewBox="0 0 128 128"><title>SERVER</title><circle cx="83.375" cy="15.346" r="3.023"/><path d="M95.208,18.369a3.023,3.023,0,1,0-3.023-3.023A3.023,3.023,0,0,0,95.208,18.369Z"/><path d="M103.808,4.75H24.192a1.75,1.75,0,0,0-1.75,1.75V24.192a1.75,1.75,0,0,0,1.75,1.75h79.616a1.75,1.75,0,0,0,1.75-1.75V6.5A1.75,1.75,0,0,0,103.808,4.75Zm-1.75,17.692H25.942V8.25h76.116Z"/><circle cx="83.375" cy="40.596" r="3.023"/><path d="M95.208,43.619A3.023,3.023,0,1,0,92.185,40.6,3.023,3.023,0,0,0,95.208,43.619Z"/><path d="M103.808,30H24.192a1.75,1.75,0,0,0-1.75,1.75V49.442a1.75,1.75,0,0,0,1.75,1.75h79.616a1.75,1.75,0,0,0,1.75-1.75V31.75A1.75,1.75,0,0,0,103.808,30Zm-1.75,17.692H25.942V33.5h76.116Z"/><circle cx="83.375" cy="65.846" r="3.023"/><path d="M95.208,68.869a3.023,3.023,0,1,0-3.023-3.023A3.023,3.023,0,0,0,95.208,68.869Z"/><path d="M103.808,55.25H24.192A1.75,1.75,0,0,0,22.442,57V74.692a1.75,1.75,0,0,0,1.75,1.75h79.616a1.75,1.75,0,0,0,1.75-1.75V57A1.75,1.75,0,0,0,103.808,55.25Zm-1.75,17.692H25.942V58.75h76.116Z"/><circle cx="83.375" cy="91.096" r="3.023"/><path d="M95.208,94.119A3.023,3.023,0,1,0,92.185,91.1,3.023,3.023,0,0,0,95.208,94.119Z"/><path d="M103.808,80.5H24.192a1.75,1.75,0,0,0-1.75,1.75V99.942a1.75,1.75,0,0,0,1.75,1.75H62.25V112.8a4.549,4.549,0,0,0-2.42,2.42h-15.2a1.75,1.75,0,0,0,0,3.5h15.2a4.522,4.522,0,0,0,8.34,0h15.2a1.75,1.75,0,0,0,0-3.5H68.17a4.549,4.549,0,0,0-2.42-2.42V101.692h38.058a1.75,1.75,0,0,0,1.75-1.75V82.25A1.75,1.75,0,0,0,103.808,80.5Zm-1.75,17.692H25.942V84h76.116Z"/><path d="M55.154,17.1H72.846a1.75,1.75,0,0,0,0-3.5H55.154a1.75,1.75,0,0,0,0,3.5Z"/><path d="M55.154,42.346H72.846a1.75,1.75,0,0,0,0-3.5H55.154a1.75,1.75,0,0,0,0,3.5Z"/><path d="M55.154,67.6H72.846a1.75,1.75,0,0,0,0-3.5H55.154a1.75,1.75,0,1,0,0,3.5Z"/><path d="M55.154,92.846H72.846a1.75,1.75,0,0,0,0-3.5H55.154a1.75,1.75,0,1,0,0,3.5Z"/></svg>