<svg id="Layer_1" data-name="Layer 1" xmlns="http://www.w3.org/2000/svg" viewBox="0 0 128 128"><title>BROWSER</title><path d="M121.5,13.6H6.5a1.751,1.751,0,0,0-1.75,1.75v97.308A1.751,1.751,0,0,0,6.5,114.4h115a1.75,1.75,0,0,0,1.75-1.75V15.346A1.75,1.75,0,0,0,121.5,13.6ZM8.25,17.1h111.5V27.737H8.25Zm0,93.808V31.237h111.5V110.9Z"/><path d="M82.958,19.393a3.024,3.024,0,1,0,3.024,3.024A3.024,3.024,0,0,0,82.958,19.393Z"/><path d="M94.792,19.393a3.024,3.024,0,1,0,3.023,3.024A3.024,3.024,0,0,0,94.792,19.393Z"/><path d="M106.625,19.393a3.024,3.024,0,1,0,3.023,3.024A3.023,3.023,0,0,0,106.625,19.393Z"/><path d="M92.917,71.066A28.727,28.727,0,0,0,89.081,56.7a1.762,1.762,0,0,0-.215-.375A29.042,29.042,0,0,0,72.035,43.294a1.688,1.688,0,0,0-.221-.063,28.779,28.779,0,0,0-15.627,0,1.878,1.878,0,0,0-.219.062A29.035,29.035,0,0,0,39.137,56.325a1.692,1.692,0,0,0-.219.381,28.808,28.808,0,0,0,0,28.721,1.765,1.765,0,0,0,.22.382A29.034,29.034,0,0,0,55.99,98.846a1.719,1.719,0,0,0,.226.064,28.775,28.775,0,0,0,15.562,0,1.663,1.663,0,0,0,.232-.066,29.036,29.036,0,0,0,16.855-13.04,1.708,1.708,0,0,0,.216-.376A28.73,28.73,0,0,0,92.917,71.066ZM65.75,96.416v-9.9h9.142a27.982,27.982,0,0,1-4.464,9.14A25.23,25.23,0,0,1,65.75,96.416Zm-8.177-.758a27.962,27.962,0,0,1-4.465-9.14H62.25v9.9A25.206,25.206,0,0,1,57.573,95.658ZM38.651,72.816H47.5a58.6,58.6,0,0,0,1.141,10.2H41.577A25.211,25.211,0,0,1,38.651,72.816Zm2.926-13.7h7.061a58.626,58.626,0,0,0-1.141,10.2H38.651A25.211,25.211,0,0,1,41.577,59.115Zm20.673-13.4v9.9H53.108a27.962,27.962,0,0,1,4.465-9.14A25.289,25.289,0,0,1,62.25,45.717Zm8.178.758a27.971,27.971,0,0,1,4.464,9.14H65.75v-9.9A25.314,25.314,0,0,1,70.428,46.475ZM89.35,69.316H80.5a58.659,58.659,0,0,0-1.141-10.2h7.062A25.243,25.243,0,0,1,89.35,69.316ZM77,69.316H65.75v-10.2H75.783A55.59,55.59,0,0,1,77,69.316ZM62.25,59.115v10.2H51a55.472,55.472,0,0,1,1.22-10.2ZM51,72.816H62.25v10.2H52.218A55.462,55.462,0,0,1,51,72.816Zm14.752,10.2v-10.2H77a55.524,55.524,0,0,1-1.22,10.2ZM80.5,72.816H89.35a25.243,25.243,0,0,1-2.926,10.2H79.362A58.671,58.671,0,0,0,80.5,72.816Zm3.658-17.2H78.534A38.823,38.823,0,0,0,75.867,48.6,25.589,25.589,0,0,1,84.161,55.615ZM52.134,48.6a38.732,38.732,0,0,0-2.667,7.015H43.839A25.57,25.57,0,0,1,52.134,48.6Zm-8.3,37.918h5.627a38.823,38.823,0,0,0,2.667,7.015A25.577,25.577,0,0,1,43.839,86.518Zm32.028,7.015a38.852,38.852,0,0,0,2.667-7.015h5.627A25.577,25.577,0,0,1,75.867,93.533Z"/></svg>