<svg id="Layer_1" data-name="Layer 1" xmlns="http://www.w3.org/2000/svg" viewBox="0 0 128 128"><title>CHAT</title><path d="M121.5,4.75H41.88A1.75,1.75,0,0,0,40.13,6.5V44.558H6.5a1.75,1.75,0,0,0-1.75,1.75v57.5a1.75,1.75,0,0,0,1.75,1.75h8.125V121.5a1.75,1.75,0,0,0,2.987,1.237l17.18-17.18H86.115a1.75,1.75,0,0,0,1.75-1.75V65.75h5.34l17.178,17.177a1.75,1.75,0,0,0,2.987-1.237V65.75h8.13A1.75,1.75,0,0,0,123.25,64V6.5A1.75,1.75,0,0,0,121.5,4.75ZM84.365,102.058h-50.3a1.75,1.75,0,0,0-1.237.513l-14.705,14.7V103.808a1.75,1.75,0,0,0-1.75-1.75H8.25v-54H41.856l.024,0,.024,0H84.365ZM119.75,62.25h-8.13A1.75,1.75,0,0,0,109.87,64V77.465l-14.7-14.7a1.75,1.75,0,0,0-1.237-.513H87.865V46.308a1.75,1.75,0,0,0-1.75-1.75H43.63V8.25h76.12Z"/><circle cx="20.808" cy="75.058" r="4"/><circle cx="37.808" cy="75.058" r="4"/><circle cx="54.808" cy="75.058" r="4"/><circle cx="71.808" cy="75.058" r="4"/><circle cx="56.192" cy="35.25" r="4"/><circle cx="73.192" cy="35.25" r="4"/><circle cx="90.192" cy="35.25" r="4"/><circle cx="107.192" cy="35.25" r="4"/></svg>