<svg id="Layer_1" data-name="Layer 1" xmlns="http://www.w3.org/2000/svg" viewBox="0 0 128 128"><title>E LEARNING</title><path d="M117,23.613H103.25V13.274a1.75,1.75,0,0,0-1.75-1.75H95.4c-2.224-.684-16.613-4.73-31.4-.081-14.786-4.648-29.173-.6-31.4.081H26.5a1.75,1.75,0,0,0-1.75,1.75V23.613H11a1.75,1.75,0,0,0-1.75,1.75V95.036A1.75,1.75,0,0,0,11,96.786H52.089l-3.119,12.4h-.278A7.825,7.825,0,0,0,40.875,117a1.75,1.75,0,0,0,1.75,1.75h42.75a1.75,1.75,0,0,0,1.75-1.75,7.826,7.826,0,0,0-7.816-7.816h-.277l-3.119-12.4H117a1.75,1.75,0,0,0,1.75-1.75V25.363A1.75,1.75,0,0,0,117,23.613ZM26.5,69.6h75a1.75,1.75,0,0,0,1.75-1.75V32.878h5.812v48.8H18.938v-48.8H24.75V67.849A1.75,1.75,0,0,0,26.5,69.6Zm73.25-3.5h-34V64.982a66.848,66.848,0,0,1,28.968.324,1.75,1.75,0,0,0,2.164-1.7V15.024H99.75Zm-6.368-51.5V61.419A70.168,70.168,0,0,0,65.75,61.4V14.581C77.741,11.057,89.637,13.6,93.382,14.594ZM62.25,14.563V61.4a70.131,70.131,0,0,0-27.632.023V14.594C38.363,13.6,50.263,11.038,62.25,14.563Zm-34,.462h2.868V63.606a1.75,1.75,0,0,0,2.164,1.7,67.069,67.069,0,0,1,28.968-.322V66.1h-34Zm55,100.226H44.746a4.323,4.323,0,0,1,3.946-2.566H79.309A4.321,4.321,0,0,1,83.254,115.25Zm-7.832-6.066H52.578l3.119-12.4H72.3Zm39.828-15.9H12.75V27.113h12v2.265H17.188a1.75,1.75,0,0,0-1.75,1.75v52.3a1.75,1.75,0,0,0,1.75,1.75h93.623a1.75,1.75,0,0,0,1.75-1.75v-52.3a1.75,1.75,0,0,0-1.75-1.75H103.25V27.113h12Z"/><path d="M39.073,25.8c.094-.031,9.509-3.03,18.721,0a1.75,1.75,0,1,0,1.093-3.324c-10.333-3.4-20.478-.141-20.9,0A1.75,1.75,0,0,0,39.073,25.8Z"/><path d="M39.073,34.813c.094-.03,9.509-3.029,18.721,0a1.75,1.75,0,1,0,1.093-3.324c-10.333-3.4-20.478-.141-20.9,0a1.75,1.75,0,0,0,1.091,3.325Z"/><path d="M39.073,43.827c.094-.031,9.509-3.03,18.721,0A1.75,1.75,0,1,0,58.886,40.5c-10.333-3.4-20.478-.141-20.9,0a1.75,1.75,0,0,0,1.091,3.325Z"/><path d="M39.075,52.841c.094-.03,9.466-3.041,18.719,0a1.75,1.75,0,1,0,1.093-3.324c-10.333-3.4-20.478-.141-20.9,0a1.75,1.75,0,1,0,1.093,3.324Z"/><path d="M69.66,25.885a1.754,1.754,0,0,0,.547-.088c9.193-3.021,18.587-.041,18.72,0a1.75,1.75,0,0,0,1.092-3.325c-.428-.141-10.569-3.4-20.905,0a1.75,1.75,0,0,0,.547,3.412Z"/><path d="M69.66,34.9a1.754,1.754,0,0,0,.547-.088c9.193-3.021,18.587-.041,18.72,0a1.75,1.75,0,0,0,1.092-3.325c-.428-.141-10.569-3.4-20.905,0A1.75,1.75,0,0,0,69.66,34.9Z"/><path d="M69.66,43.914a1.754,1.754,0,0,0,.547-.088c9.193-3.022,18.587-.042,18.72,0A1.75,1.75,0,0,0,90.019,40.5c-.428-.141-10.569-3.4-20.905,0a1.75,1.75,0,0,0,.547,3.412Z"/><path d="M90.019,49.517c-.428-.141-10.569-3.4-20.905,0a1.75,1.75,0,1,0,1.094,3.324c9.192-3.021,18.589-.042,18.72,0a1.75,1.75,0,0,0,1.092-3.325Z"/></svg>